<svg xmlns="http://www.w3.org/2000/svg" viewBox="0 0 878.87 278.83"><defs><style>.cls-1{fill:#fff;}</style></defs><g id="Capa_2" data-name="Capa 2"><g id="Capa_1-2" data-name="Capa 1"><path class="cls-1" d="M112.37,0H0V278.83H49.78V180.42h62.59a70,70,0,0,0,70-70V70A70,70,0,0,0,112.37,0Zm20.1,103.64a30,30,0,0,1-30,30H50V47.2h52.52a30,30,0,0,1,30,30Z"/><rect class="cls-1" x="829.09" width="49.78" height="278.83"/><rect class="cls-1" x="414.63" y="-97.65" width="49.78" height="703.17" transform="translate(185.58 693.45) rotate(-90)"/><path class="cls-1" d="M546.58,0V119.37a2,2,0,0,1-3.68,1.08L469.31,6.84A15,15,0,0,0,456.72,0H414.57V203.79h50.3V84.42a2,2,0,0,1,3.68-1.09l73.6,113.61a15,15,0,0,0,12.59,6.85h42.15V0Z"/><path class="cls-1" d="M220.27,0V46.41h91.2a25,25,0,0,1,25,25v9.13h-79.1a50,50,0,0,0-50,50V154a50,50,0,0,0,50,50h132.2V60a60,60,0,0,0-60-60Zm116.2,157.63H267.1a15,15,0,0,1-15-15v-2.4a15,15,0,0,1,15-15h69.37Z"/><path class="cls-1" d="M621.89,60v84a60,60,0,0,0,60,60H791.18V157.63H700a25,25,0,0,1-25-25v-9.12h84.37a44.73,44.73,0,0,0,44.73-44.73V50a50,50,0,0,0-50-50h-72.2A60,60,0,0,0,621.89,60ZM744.36,78.82H675V61.41a15,15,0,0,1,15-15h54.37a15,15,0,0,1,15,15v2.41A15,15,0,0,1,744.36,78.82Z"/></g></g></svg>