<svg xmlns="http://www.w3.org/2000/svg" xmlns:xlink="http://www.w3.org/1999/xlink" id="Capa_1" x="0px" y="0px" viewBox="0 0 196.85 221.05" style="enable-background:new 0 0 196.85 221.05;" xml:space="preserve">
<style type="text/css">
	.st0{fill:#FFFFFF;}
	.st1{fill:#857E6B;}
	.st2{fill:#BF0418;}
	.st3{fill:#BA0719;}
</style>
<g>
	<path class="st0" d="M125.12,29.56c0,15.28-12.38,27.67-27.67,27.67c-15.28,0-27.66-12.39-27.66-27.67   c0-15.28,12.38-27.67,27.66-27.67C112.74,1.89,125.12,14.28,125.12,29.56z"></path>
	<g>
		<path class="st1" d="M2.97,167.09c3.42-4.75,8.27-11.97,9.38-13.71c-0.52-0.02-1.06-0.04-1.52-0.04c-2.08,0-5.33,0.15-6.97,0.33    c0.06-0.22,0.11-0.46,0.11-0.68c0-0.22-0.04-0.46-0.11-0.68c1.41,0.11,4.57,0.11,9.03,0.11c0.78,0,1.58-0.07,2.32-0.11v0.4    c-1.69,1.89-8.23,11.53-9.47,13.66c0.7,0.04,1.24,0.06,1.8,0.06c2.21,0,6.15-0.2,7.67-0.39c-0.07,0.26-0.1,0.48-0.1,0.72    c0,0.24,0.04,0.46,0.1,0.7c-2.08-0.07-3.44-0.11-5.09-0.11c-2.25,0-6.06,0.04-7.15,0.11V167.09z"></path>
		<path class="st1" d="M22.83,152.03c2.13,5.1,5.38,13.09,6.52,15.44c-0.39-0.07-0.76-0.11-1.15-0.11c-0.39,0-0.76,0.04-1.15,0.11    c-0.41-1.51-1.45-3.93-2.23-5.89c-0.93-0.02-1.88-0.04-2.84-0.04c-0.89,0-1.75,0.02-2.64,0.04c-0.91,2.26-1.73,4.5-2.1,5.89    c-0.28-0.07-0.54-0.11-0.8-0.11c-0.26,0-0.52,0.04-0.8,0.11c2.31-5.14,4.57-10.26,6.78-15.44H22.83z M22.12,154.99l-2.36,5.58    c0.76,0,1.58,0.04,2.34,0.04c0.8,0,1.63-0.02,2.42-0.04L22.12,154.99z"></path>
		<path class="st1" d="M31.42,158c0-1.89-0.09-3.8-0.17-5.69c0.82,0.07,1.65,0.11,2.47,0.11c0.83,0,1.65-0.11,2.47-0.11    c2.45,0,4.5,0.86,4.5,3.47c0,2.83-2.79,3.98-4.44,4.2c1.06,1.34,4.68,6.06,5.93,7.49c-0.43-0.07-0.87-0.11-1.3-0.11    c-0.41,0-0.84,0.04-1.26,0.11c-0.86-1.34-3.75-5.38-5.61-7.29h-0.82v1.6c0,1.89,0.08,3.8,0.17,5.69    c-0.37-0.07-0.72-0.11-1.06-0.11c-0.34,0-0.69,0.04-1.06,0.11c0.09-1.89,0.17-3.8,0.17-5.69V158z M33.19,159.25    c0.39,0.09,0.89,0.11,1.45,0.11c1.78,0,4.14-0.75,4.14-3.36c0-2.31-1.89-2.88-3.36-2.88c-1,0-1.65,0.07-2.1,0.11    c-0.06,1.61-0.13,3.18-0.13,4.77V159.25z"></path>
		<path class="st1" d="M49.65,152.03c2.12,5.1,5.37,13.09,6.52,15.44c-0.39-0.07-0.76-0.11-1.15-0.11c-0.39,0-0.75,0.04-1.14,0.11    c-0.41-1.51-1.45-3.93-2.23-5.89c-0.93-0.02-1.89-0.04-2.84-0.04c-0.89,0-1.76,0.02-2.65,0.04c-0.91,2.26-1.73,4.5-2.1,5.89    c-0.28-0.07-0.54-0.11-0.8-0.11c-0.26,0-0.52,0.04-0.8,0.11c2.32-5.14,4.57-10.26,6.78-15.44H49.65z M48.94,154.99l-2.36,5.58    c0.76,0,1.58,0.04,2.34,0.04c0.8,0,1.62-0.02,2.43-0.04L48.94,154.99z"></path>
		<path class="st1" d="M59.64,158c0-1.51-0.02-3.03-0.06-4.54c-1.5,0-3.42,0.09-4.63,0.24c0.06-0.22,0.11-0.46,0.11-0.7    c0-0.22-0.04-0.44-0.11-0.68c1.86,0.07,3.72,0.11,5.58,0.11c1.87,0,3.73-0.04,5.59-0.11c-0.06,0.24-0.11,0.46-0.11,0.7    c0,0.22,0.04,0.46,0.11,0.68c-1.21-0.15-3.14-0.24-4.63-0.24c-0.04,1.51-0.06,3.03-0.06,4.54v3.78c0,1.89,0.08,3.8,0.17,5.69    c-0.37-0.07-0.71-0.11-1.06-0.11c-0.34,0-0.69,0.04-1.06,0.11c0.08-1.89,0.17-3.8,0.17-5.69V158z"></path>
		<path class="st1" d="M68.23,157.98c0-1.89-0.08-3.8-0.17-5.67c1.3,0.07,2.58,0.11,3.88,0.11c1.3,0,2.58-0.04,3.85-0.11    c-0.04,0.22-0.07,0.44-0.07,0.66c0,0.22,0.02,0.44,0.07,0.66c-1.82-0.13-2.88-0.28-5.7-0.28c-0.02,0.94-0.09,1.71-0.09,2.79    c0,1.15,0.02,2.35,0.02,2.9c2.55,0,3.99-0.11,5.26-0.22c-0.04,0.22-0.06,0.46-0.06,0.68c0,0.22,0.02,0.44,0.06,0.66    c-1.5-0.15-4.22-0.2-5.26-0.2c-0.02,0.53-0.02,1.08-0.02,3.19c0,1.67,0.02,2.74,0.04,3.29c1.93,0,4.48-0.02,5.85-0.29    c-0.05,0.2-0.07,0.49-0.07,0.68c0,0.2,0.02,0.44,0.07,0.64c-1.28-0.07-2.58-0.11-3.9-0.11c-1.32,0-2.62,0.04-3.94,0.11    c0.09-1.91,0.17-3.82,0.17-5.71V157.98z"></path>
		<path class="st1" d="M83.01,161.6h5.39v1.36h-5.39V161.6z"></path>
		<path class="st1" d="M107.79,166.5c-0.54,0.44-2.34,1.25-4.51,1.25c-4.57,0-7.9-2.88-7.9-7.86c0-4.99,3.33-7.86,8.12-7.86    c1.86,0,3.53,0.46,4.7,1.01c-0.21,0.4-0.36,1.25-0.45,1.72l-0.13,0.04c-0.6-0.68-2.08-1.96-4.12-1.96c-3.4,0-6,2.17-6,7.05    c0,4.88,2.6,7.05,6,7.05c2.06,0,3.57-1.18,4.4-1.82l0.09,0.09L107.79,166.5z"></path>
		<path class="st1" d="M115.06,152.03c2.12,5.1,5.38,13.09,6.52,15.44c-0.39-0.07-0.76-0.11-1.14-0.11c-0.39,0-0.76,0.04-1.15,0.11    c-0.41-1.51-1.45-3.93-2.23-5.89c-0.93-0.02-1.88-0.04-2.83-0.04c-0.89,0-1.75,0.02-2.64,0.04c-0.91,2.26-1.73,4.5-2.1,5.89    c-0.29-0.07-0.54-0.11-0.81-0.11c-0.26,0-0.52,0.04-0.8,0.11c2.31-5.14,4.57-10.26,6.78-15.44H115.06z M114.35,154.99l-2.36,5.58    c0.76,0,1.58,0.04,2.34,0.04c0.81,0,1.63-0.02,2.42-0.04L114.35,154.99z"></path>
		<path class="st1" d="M125.03,152.03c1.97,4.13,4,7.99,6.21,12.1c0.87-1.71,4.31-8.04,6.43-12.1h0.28    c0.65,5.62,1.09,10.41,1.78,15.44c-0.35-0.07-0.67-0.11-1.02-0.11c-0.35,0-0.67,0.04-1.02,0.11c-0.31-3.93-0.61-7.58-1.06-11.33    h-0.04c-1.97,3.67-3.96,7.27-5.67,11.22h-0.2c-1.69-3.65-3.68-7.42-5.57-11.22h-0.04c-0.41,3.62-1.02,8.85-1.04,11.33    c-0.26-0.07-0.5-0.11-0.75-0.11c-0.26,0-0.5,0.04-0.76,0.11c0.76-4.85,1.62-10.78,2.1-15.44H125.03z"></path>
		<path class="st1" d="M142.46,158c0-1.89-0.09-3.8-0.18-5.69c0.7,0.07,1.41,0.11,2.1,0.11c0.7,0,2.08-0.11,2.69-0.11    c1.3,0,4.74,0.04,4.74,3.71c0,3.87-3.75,4.62-5.83,4.62c-0.65,0-1.19-0.02-1.75-0.07v1.21c0,1.89,0.09,3.8,0.17,5.69    c-0.37-0.07-0.71-0.11-1.06-0.11c-0.35,0-0.69,0.04-1.07,0.11c0.09-1.89,0.18-3.8,0.18-5.69V158z M144.24,159.65    c0.46,0.11,1.06,0.18,1.54,0.18c1.77,0,4.05-0.68,4.05-3.67c0-2.5-1.41-3.03-3.64-3.03h-1.95V159.65z"></path>
		<path class="st1" d="M158.32,152.03c2.12,5.1,5.37,13.09,6.52,15.44c-0.39-0.07-0.76-0.11-1.15-0.11c-0.39,0-0.76,0.04-1.15,0.11    c-0.41-1.51-1.45-3.93-2.23-5.89c-0.93-0.02-1.88-0.04-2.83-0.04c-0.89,0-1.75,0.02-2.64,0.04c-0.91,2.26-1.73,4.5-2.1,5.89    c-0.28-0.07-0.54-0.11-0.8-0.11c-0.26,0-0.52,0.04-0.8,0.11c2.31-5.14,4.57-10.26,6.78-15.44H158.32z M157.6,154.99l-2.36,5.58    c0.76,0,1.59,0.04,2.34,0.04c0.8,0,1.63-0.02,2.43-0.04L157.6,154.99z"></path>
		<path class="st1" d="M179.09,167.75c-3.29-3.93-7.23-8.15-10.93-12.15c-0.02,0.81-0.07,2.13-0.07,4.46c0,1.89,0.09,6.52,0.2,7.4    c-0.24-0.07-0.5-0.11-0.75-0.11c-0.26,0-0.52,0.04-0.8,0.11c0.17-1.03,0.46-6.65,0.46-9.55c0-2.77,0-4.9-0.07-5.89h0.35    c3.53,3.89,8.32,9.18,10.96,11.88c0-3.93,0-8.21-0.17-11.6c0.24,0.07,0.5,0.11,0.74,0.11c0.24,0,0.45-0.04,0.69-0.11    c-0.13,1.3-0.35,5.64-0.35,7.36c0,2.24,0.04,7.1,0.06,8.08H179.09z"></path>
		<path class="st1" d="M188.36,152.03c2.12,5.1,5.38,13.09,6.52,15.44c-0.39-0.07-0.75-0.11-1.14-0.11c-0.39,0-0.76,0.04-1.15,0.11    c-0.41-1.51-1.45-3.93-2.23-5.89c-0.93-0.02-1.88-0.04-2.84-0.04c-0.89,0-1.75,0.02-2.64,0.04c-0.91,2.26-1.74,4.5-2.1,5.89    c-0.28-0.07-0.54-0.11-0.8-0.11c-0.26,0-0.52,0.04-0.8,0.11c2.31-5.14,4.57-10.26,6.78-15.44H188.36z M187.65,154.99l-2.36,5.58    c0.76,0,1.58,0.04,2.34,0.04c0.81,0,1.63-0.02,2.43-0.04L187.65,154.99z"></path>
	</g>
	<path class="st1" d="M21.31,150.92l2.42-2.44c0.58-0.58,0.65-0.66,0.94-0.66c0.32,0,0.61,0.29,0.61,0.64c0,0.22-0.11,0.4-0.34,0.55   l-3,1.9H21.31z"></path>
	<g>
		<path class="st2" d="M125.86,29.51c0,15.6-12.64,28.24-28.23,28.24c-15.6,0-28.24-12.64-28.24-28.24    c0-15.6,12.64-28.24,28.24-28.24C113.22,1.27,125.86,13.91,125.86,29.51z M97.31,2.51c-0.98,0.03-0.88,2.15-1.42,2.18    c-1.26,0.08-2.5,0.26-3.7,0.52c-0.46,0.1-0.88-2.16-1.96-1.86c-0.88,0.24-0.08,2.39-0.41,2.5c-1.27,0.41-2.5,0.92-3.68,1.53    c-0.41,0.21-1.41-1.9-2.42-1.25c-0.7,0.44,0.5,2.35,0.15,2.57c-1.09,0.72-2.13,1.52-3.08,2.39c-0.33,0.3-1.77-1.38-2.46-0.65    c-0.71,0.74,0.89,2.2,0.6,2.53c-0.83,0.93-1.6,1.92-2.28,2.97c-0.25,0.37-1.95-0.76-2.43,0.19c-0.44,0.89,1.3,1.71,1.1,2.09    c-0.6,1.16-1.1,2.38-1.51,3.65c-0.13,0.41-2.05-0.45-2.33,0.67c-0.23,0.95,1.74,1.45,1.65,1.89c-0.27,1.3-0.44,2.64-0.5,4.01    c-0.02,0.37-1.96,0.13-2,1.18c-0.03,0.98,1.98,0.86,2.01,1.32c0.08,1.37,0.26,2.71,0.55,4.02c0.08,0.36-1.88,0.76-1.61,1.81    c0.22,0.84,2.1,0.08,2.23,0.47c0.43,1.33,0.97,2.6,1.6,3.81c0.2,0.39-1.56,1.26-1.02,2.25c0.41,0.75,2.1-0.37,2.34-0.02    c0.76,1.15,1.61,2.22,2.53,3.22c0.28,0.31-1.17,1.4-0.46,2.19c0.64,0.71,1.91-0.75,2.2-0.49c0.99,0.88,2.04,1.67,3.16,2.38    c0.38,0.25-0.58,1.87,0.09,2.35c0.7,0.49,1.88-1.22,2.28-1.01c1.16,0.57,2.37,1.05,3.62,1.43c0.39,0.12-0.34,2.02,0.6,2.29    c0.94,0.27,1.46-1.74,1.91-1.65c1.29,0.26,2.61,0.41,3.95,0.46c0.29,0.01,0.21,1.98,1.29,2.05c1.02,0.06,0.66-2.05,1.18-2.08    c1.35-0.09,2.68-0.28,3.97-0.57c0.47-0.11,1.25,1.84,2.2,1.5c1.01-0.37,0.01-2.11,0.4-2.25c1.19-0.41,2.33-0.91,3.43-1.49    c0.37-0.19,1.52,1.53,2.31,1.03c0.92-0.6-0.44-2.11-0.06-2.36c1.04-0.7,2.03-1.48,2.95-2.32c0.32-0.29,1.55,1.43,2.39,0.54    c0.85-0.88-0.84-2.08-0.55-2.41c0.86-0.96,1.63-1.98,2.33-3.07c0.24-0.36,2.15,0.81,2.56-0.01c0.42-0.83-1.42-1.95-1.2-2.38    c0.57-1.15,1.05-2.34,1.44-3.58c0.13-0.41,2.16,0.24,2.4-0.58c0.24-0.81-1.84-1.51-1.75-1.94c0.26-1.29,0.42-2.61,0.47-3.96    c0.02-0.34,2.2-0.37,2.2-1.19c0-1.02-2.18-0.71-2.21-1.15c-0.07-1.39-0.25-2.76-0.55-4.08c-0.11-0.51,1.8-0.77,1.6-1.76    c-0.17-0.81-2.17-0.37-2.27-0.68c-0.43-1.29-0.95-2.53-1.58-3.72c-0.19-0.37,1.58-1.29,1.11-2.21c-0.41-0.8-2.2,0.33-2.46-0.07    c-0.73-1.09-1.54-2.12-2.43-3.08c-0.34-0.36,1.18-1.71,0.58-2.31c-0.71-0.71-2.12,0.78-2.38,0.55c-0.91-0.8-1.88-1.54-2.89-2.2    c-0.45-0.3,0.7-2.21-0.29-2.72c-0.79-0.41-1.96,1.41-2.38,1.2c-1.13-0.55-2.31-1.03-3.53-1.4c-0.42-0.13,0.32-2.17-0.6-2.37    c-0.91-0.21-1.41,1.84-1.8,1.76c-1.3-0.27-2.63-0.43-4-0.49C98.21,4.66,98.4,2.48,97.31,2.51z"></path>
		<path class="st2" d="M120.98,29.38c0,12.92-10.47,23.39-23.39,23.39c-12.92,0-23.39-10.48-23.39-23.39    c0-12.92,10.47-23.39,23.39-23.39C110.51,5.99,120.98,16.46,120.98,29.38z M102.7,23.42c4.03,2.08,11.59,5.95,12.71,6.44    c1.54,0.67,0.87-1.06,0.87-1.06L98.8,16.88l-0.34-0.28l-0.45-0.8c-0.67-1.07-1.4-1.61-2.2-1.61c-0.82,0-1.58,0.54-2.28,1.61    L82.68,34.77c-0.28,0.43-0.41,0.88-0.41,1.36c0,0.7,0.25,1.31,0.74,1.84c0.5,0.52,1.12,0.79,1.86,0.79h21.63    c1.97,0,2.97-0.65,2.97-1.97c0-0.6-0.21-1.27-0.63-2.02l-6.6-11.57L102.7,23.42z"></path>
	</g>
	<g>
		<path class="st1" d="M17.07,71.67c6.59,0,11.18,3.94,11.18,10.76c0,6.82-4.59,10.76-11.18,10.76c-6.56,0-11.15-3.94-11.15-10.76    C5.92,75.6,10.52,71.67,17.07,71.67z M17.07,72.78c-4.65,0-8.23,2.98-8.23,9.65c0,6.67,3.58,9.65,8.23,9.65    c4.68,0,8.26-2.97,8.26-9.65C25.33,75.75,21.76,72.78,17.07,72.78z"></path>
		<path class="st1" d="M32.43,79.81c0-2.58-0.12-5.2-0.24-7.75c1.05,0.09,2.12,0.15,3.17,0.15c1.04,0,2.12-0.15,3.16-0.15    c3.4,0,6.29,0.93,6.29,4.33c0,2.95-2.02,4.6-5.01,5.26v0.06c3.55,0.18,5.72,1.62,5.72,5.05c0,4.45-4.09,6.04-7.54,6.04    c-0.95,0-1.94-0.15-2.89-0.15c-0.95,0-1.94,0.06-2.9,0.15c0.12-2.62,0.24-5.23,0.24-7.81V79.81z M36.49,81.29    c2.81,0,5.7-0.99,5.7-4.33c0-3.24-2.59-3.79-4.86-3.79c-1.01,0-1.7,0.06-2.27,0.15c-0.06,1.89-0.18,3.82-0.18,5.71v2.25H36.49z     M34.88,85.46c0,2.01,0.12,4.06,0.18,6.07c0.75,0.09,1.85,0.15,2.92,0.15c2.56,0,4.8-1.81,4.8-5.05c0-3.43-2.59-4.24-6.56-4.24    h-1.34V85.46z"></path>
		<path class="st1" d="M50.65,79.84c0-2.58-0.12-5.2-0.24-7.79c1.13,0.09,2.27,0.15,3.4,0.15c1.13,0,2.27-0.15,3.4-0.15    c3.37,0,6.2,1.17,6.2,4.75c0,3.88-3.85,5.44-6.11,5.74c1.46,1.83,6.44,8.3,8.17,10.25c-0.6-0.09-1.19-0.15-1.79-0.15    c-0.57,0-1.16,0.06-1.73,0.15c-1.19-1.83-5.16-7.36-7.73-9.98H53.1v2.19c0,2.58,0.12,5.2,0.24,7.79    c-0.51-0.09-0.98-0.15-1.46-0.15c-0.48,0-0.96,0.06-1.46,0.15c0.12-2.58,0.24-5.2,0.24-7.79V79.84z M53.1,81.56    c0.54,0.12,1.22,0.15,2,0.15c2.45,0,5.7-1.02,5.7-4.6c0-3.15-2.59-3.94-4.62-3.94c-1.37,0-2.26,0.09-2.89,0.15    c-0.09,2.19-0.18,4.36-0.18,6.52V81.56z"></path>
		<path class="st1" d="M76.36,71.67c2.92,6.97,7.4,17.91,8.98,21.13c-0.54-0.09-1.04-0.15-1.58-0.15c-0.54,0-1.04,0.06-1.58,0.15    c-0.56-2.07-2-5.38-3.07-8.05c-1.28-0.03-2.6-0.06-3.91-0.06c-1.22,0-2.41,0.03-3.63,0.06c-1.26,3.1-2.39,6.16-2.9,8.05    c-0.38-0.09-0.74-0.15-1.1-0.15c-0.36,0-0.71,0.06-1.1,0.15c3.19-7.03,6.29-14.04,9.33-21.13H76.36z M75.37,75.72l-3.25,7.63    c1.04,0,2.18,0.06,3.22,0.06c1.1,0,2.23-0.03,3.34-0.06L75.37,75.72z"></path>
		<path class="st1" d="M96.4,88.8c0.66,1.41,2.15,3.13,4.71,3.13c2.66,0,4.26-1.95,4.26-4.36c0-5.53-9.39-3.16-9.39-10.22    c0-3.34,2.51-5.68,6.47-5.68c1.88,0,3.22,0.45,4.41,1.41c-0.36,0.69-0.57,1.38-0.81,2.53h-0.36c-0.42-1.11-1.32-2.83-3.55-2.83    c-2.24,0-3.85,1.53-3.85,3.73c0,5.62,9.39,3.28,9.39,9.92c0,3.67-2.71,6.76-7.3,6.76c-2.48,0-3.88-0.87-4.92-1.71    c0.36-0.93,0.45-1.53,0.57-2.67H96.4z"></path>
		<path class="st1" d="M121.45,71.67c6.59,0,11.18,3.94,11.18,10.76c0,6.82-4.59,10.76-11.18,10.76c-6.56,0-11.15-3.94-11.15-10.76    C110.29,75.6,114.89,71.67,121.45,71.67z M121.45,72.78c-4.66,0-8.23,2.98-8.23,9.65c0,6.67,3.58,9.65,8.23,9.65    c4.68,0,8.26-2.97,8.26-9.65C129.7,75.75,126.13,72.78,121.45,72.78z"></path>
		<path class="st1" d="M152.22,91.47c-0.74,0.6-3.22,1.71-6.2,1.71c-6.29,0-10.88-3.94-10.88-10.76c0-6.82,4.59-10.76,11.18-10.76    c2.56,0,4.86,0.63,6.47,1.38c-0.3,0.54-0.51,1.71-0.63,2.34l-0.18,0.06c-0.84-0.93-2.86-2.68-5.67-2.68    c-4.68,0-8.26,2.98-8.26,9.65c0,6.67,3.58,9.65,8.26,9.65c2.83,0,4.92-1.62,6.05-2.5l0.12,0.12L152.22,91.47z"></path>
		<path class="st1" d="M156.69,79.84c0-2.58-0.12-5.2-0.24-7.79c0.51,0.09,0.99,0.15,1.46,0.15c0.48,0,0.96-0.06,1.46-0.15    c-0.12,2.59-0.24,5.2-0.24,7.79v5.17c0,2.58,0.12,5.2,0.24,7.79c-0.5-0.09-0.98-0.15-1.46-0.15c-0.48,0-0.96,0.06-1.46,0.15    c0.12-2.58,0.24-5.2,0.24-7.79V79.84z"></path>
		<path class="st1" d="M172.47,71.67c2.92,6.97,7.39,17.91,8.97,21.13c-0.53-0.09-1.04-0.15-1.58-0.15c-0.54,0-1.04,0.06-1.58,0.15    c-0.57-2.07-2-5.38-3.07-8.05c-1.29-0.03-2.6-0.06-3.91-0.06c-1.23,0-2.42,0.03-3.64,0.06c-1.25,3.1-2.39,6.16-2.89,8.05    c-0.39-0.09-0.75-0.15-1.1-0.15c-0.36,0-0.72,0.06-1.11,0.15c3.19-7.03,6.29-14.04,9.34-21.13H172.47z M171.49,75.72l-3.25,7.63    c1.04,0,2.18,0.06,3.22,0.06c1.11,0,2.24-0.03,3.34-0.06L171.49,75.72z"></path>
		<path class="st1" d="M184.87,79.84c0-2.58-0.12-5.2-0.24-7.79c0.51,0.09,0.99,0.15,1.47,0.15c0.48,0,0.95-0.06,1.46-0.15    c-0.12,2.59-0.24,5.2-0.24,7.79c0,5.05,0.06,8.6,0.09,11.54c2.8,0,5.25,0,8.23-0.39c-0.09,0.3-0.15,0.6-0.15,0.9    c0,0.3,0.06,0.6,0.15,0.9c-1.82-0.09-3.67-0.15-5.49-0.15c-1.85,0-3.67,0.06-5.52,0.15c0.12-2.58,0.24-5.2,0.24-7.79V79.84z"></path>
		<path class="st1" d="M20.47,107.02c8.4,0,14.25,5.02,14.25,13.71c0,7.16-3.96,11.79-10.03,13.25c2.7,2.18,5.51,4.4,8.59,6.59    c-1.33,0.07-2.54,0.92-2.96,1.57c-2.77-2.57-5.58-5.13-8.74-7.74c-0.38,0.04-0.72,0.04-1.1,0.04c-8.36,0-14.21-5.02-14.21-13.71    C6.26,112.04,12.12,107.02,20.47,107.02z M20.47,108.44c-5.93,0-10.49,3.79-10.49,12.3c0,8.5,4.56,12.29,10.49,12.29    c5.97,0,10.53-3.79,10.53-12.29C31,112.23,26.44,108.44,20.47,108.44z"></path>
		<path class="st1" d="M59.61,107.52c0.49,0.11,1.03,0.19,1.56,0.19c0.38,0,0.8-0.08,1.14-0.19c-0.3,3.56-0.6,10.3-0.68,15.89    c-0.08,6.78-3.99,11.03-10.82,11.03c-7.53,0-10.87-3.52-10.87-10.96c0-2.37,0.19-4.13,0.19-6.05c0-4.21-0.15-7.7-0.23-9.92    c0.61,0.11,1.37,0.19,1.98,0.19c0.53,0,1.14-0.08,1.64-0.19c-0.23,2.26-0.46,7.47-0.46,13.13c0,5.21,0,11.99,8.47,11.99    c8.32,0,8.32-7.85,8.32-12.68C59.83,112.69,59.83,109.01,59.61,107.52z"></path>
		<path class="st1" d="M74.16,100.05c0.53-0.53,1.14-0.92,1.71-0.92c0.49,0,1.25,0.42,1.25,1.23c0,0.92-0.76,1.41-1.37,1.8    l-5.59,3.6h-1.59L74.16,100.05z M69.6,117.44c0-3.29-0.15-6.62-0.3-9.92c0.64,0.11,1.25,0.19,1.86,0.19    c0.61,0,1.21-0.08,1.86-0.19c-0.15,3.29-0.3,6.62-0.3,9.92v6.59c0,3.29,0.15,6.63,0.3,9.92c-0.65-0.12-1.25-0.19-1.86-0.19    c-0.61,0-1.22,0.08-1.86,0.19c0.15-3.29,0.3-6.62,0.3-9.92V117.44z"></path>
		<path class="st1" d="M82.59,107.02c3.46,7.2,7.03,13.94,10.91,21.1c1.52-2.99,7.56-14.02,11.28-21.1h0.49    c1.14,9.8,1.9,18.15,3.12,26.92c-0.61-0.12-1.18-0.19-1.79-0.19c-0.6,0-1.18,0.08-1.78,0.19c-0.53-6.86-1.06-13.21-1.86-19.76    h-0.08c-3.46,6.39-6.95,12.67-9.95,19.57h-0.34c-2.96-6.36-6.45-12.94-9.76-19.57h-0.08c-0.72,6.32-1.79,15.43-1.83,19.76    c-0.45-0.12-0.87-0.19-1.33-0.19c-0.46,0-0.88,0.08-1.33,0.19c1.33-8.46,2.85-18.81,3.68-26.92H82.59z"></path>
		<path class="st1" d="M113.93,117.44c0-3.29-0.15-6.62-0.3-9.92c0.65,0.11,1.25,0.19,1.86,0.19c0.61,0,1.21-0.08,1.86-0.19    c-0.15,3.29-0.31,6.62-0.31,9.92v6.59c0,3.29,0.15,6.63,0.31,9.92c-0.65-0.12-1.25-0.19-1.86-0.19c-0.61,0-1.22,0.08-1.86,0.19    c0.15-3.29,0.3-6.62,0.3-9.92V117.44z"></path>
		<path class="st1" d="M144.14,132.26c-0.95,0.76-4.1,2.18-7.91,2.18c-8.02,0-13.87-5.02-13.87-13.71c0-8.69,5.85-13.71,14.25-13.71    c3.27,0,6.19,0.8,8.24,1.76c-0.38,0.69-0.64,2.18-0.8,2.99l-0.23,0.08c-1.06-1.19-3.65-3.41-7.21-3.41    c-5.97,0-10.53,3.79-10.53,12.3c0,8.5,4.56,12.29,10.53,12.29c3.61,0,6.27-2.07,7.71-3.18l0.15,0.16L144.14,132.26z"></path>
		<path class="st1" d="M161.92,107.02c8.39,0,14.25,5.02,14.25,13.71c0,8.69-5.85,13.71-14.25,13.71c-8.36,0-14.21-5.02-14.21-13.71    C147.71,112.04,153.56,107.02,161.92,107.02z M161.92,108.44c-5.93,0-10.49,3.79-10.49,12.3c0,8.5,4.56,12.29,10.49,12.29    c5.96,0,10.52-3.79,10.52-12.29C172.44,112.23,167.88,108.44,161.92,108.44z"></path>
		<path class="st1" d="M180.65,128.85c0.83,1.8,2.74,3.98,6,3.98c3.38,0,5.43-2.49,5.43-5.56c0-7.04-11.97-4.02-11.97-13.02    c0-4.25,3.19-7.24,8.25-7.24c2.39,0,4.1,0.58,5.62,1.8c-0.45,0.88-0.72,1.76-1.02,3.22h-0.45c-0.53-1.42-1.67-3.6-4.52-3.6    c-2.85,0-4.9,1.95-4.9,4.75c0,7.16,11.97,4.18,11.97,12.64c0,4.67-3.46,8.62-9.31,8.62c-3.15,0-4.94-1.12-6.27-2.18    c0.46-1.19,0.57-1.95,0.72-3.41H180.65z"></path>
	</g>
	<g>
		<g>
			<path class="st1" d="M73.51,194.77c6.03,0,10.23,3.57,10.23,9.76c0,5.1-2.84,8.4-7.2,9.44c1.94,1.55,3.96,3.13,6.16,4.69     c-0.95,0.05-1.83,0.65-2.13,1.12c-1.99-1.82-4.01-3.66-6.27-5.51c-0.27,0.03-0.52,0.03-0.79,0.03c-6,0-10.2-3.57-10.2-9.77     C63.31,198.34,67.51,194.77,73.51,194.77z M73.51,195.78c-4.25,0-7.52,2.7-7.52,8.75c0,6.06,3.27,8.76,7.52,8.76     c4.28,0,7.56-2.7,7.56-8.76C81.07,198.48,77.8,195.78,73.51,195.78z"></path>
			<path class="st1" d="M87.29,202.19c0-2.34-0.11-4.72-0.22-7.07c0.87,0.08,1.77,0.14,2.65,0.14c0.87,0,2.62-0.14,3.38-0.14     c1.64,0,5.97,0.06,5.97,4.61c0,4.8-4.72,5.73-7.34,5.73c-0.82,0-1.5-0.03-2.21-0.08v1.5c0,2.35,0.11,4.72,0.22,7.06     c-0.46-0.08-0.9-0.14-1.34-0.14c-0.44,0-0.87,0.05-1.34,0.14c0.11-2.35,0.22-4.72,0.22-7.06V202.19z M89.52,204.23     c0.58,0.14,1.34,0.22,1.94,0.22c2.24,0,5.1-0.85,5.1-4.56c0-3.11-1.77-3.77-4.58-3.77h-2.46V204.23z"></path>
			<path class="st1" d="M100.13,213.48c4.31-5.89,10.42-14.86,11.81-17.01c-0.65-0.03-1.33-0.06-1.91-0.06     c-2.62,0-6.71,0.19-8.78,0.41c0.08-0.27,0.14-0.57,0.14-0.84c0-0.27-0.06-0.58-0.14-0.85c1.77,0.14,5.75,0.14,11.38,0.14     c0.97,0,1.99-0.08,2.91-0.14v0.49c-2.13,2.35-10.36,14.32-11.92,16.96c0.87,0.06,1.56,0.08,2.26,0.08c2.78,0,7.75-0.24,9.66-0.49     c-0.08,0.33-0.14,0.6-0.14,0.9c0,0.3,0.06,0.57,0.14,0.87c-2.62-0.08-4.33-0.14-6.41-0.14c-2.84,0-7.64,0.05-9,0.14V213.48z"></path>
			<path class="st1" d="M132.67,212.74c-0.68,0.54-2.95,1.56-5.67,1.56c-5.76,0-9.96-3.57-9.96-9.77c0-6.19,4.2-9.76,10.23-9.76     c2.35,0,4.45,0.57,5.92,1.25c-0.27,0.49-0.46,1.55-0.57,2.13l-0.17,0.06c-0.76-0.85-2.62-2.43-5.18-2.43     c-4.28,0-7.55,2.7-7.55,8.75c0,6.06,3.27,8.76,7.55,8.76c2.59,0,4.5-1.47,5.54-2.26l0.11,0.11L132.67,212.74z"></path>
		</g>
	</g>
	<rect x="1.21" y="180.19" class="st3" width="194.41" height="2.81"></rect>
</g>
</svg>